<svg xmlns="http://www.w3.org/2000/svg" viewBox="0 0 32 32" style="enable-background:new 0 0 32 32"
	xml:space="preserve">
	<path
		d="M28.7 14.6 23 20.3c-3.1 3.1-8.2 3.1-11.3 0-.5-.5-.9-1-1.2-1.6l2.6-2.6c.1-.1.3-.2.4-.3.2.6.5 1.2 1 1.7 1.6 1.6 4.1 1.6 5.7 0l5.7-5.7c1.6-1.6 1.6-4.1 0-5.7-1.6-1.6-4.1-1.6-5.7 0l-2 2c-1.6-.6-3.4-.8-5.1-.6l4.3-4.3c3.1-3.1 8.2-3.1 11.3 0 3.2 3.2 3.2 8.3 0 11.4zm-14.9 9.3-2 2c-1.6 1.6-4.1 1.6-5.7 0-1.6-1.6-1.6-4.1 0-5.7l5.7-5.7c1.6-1.6 4.1-1.6 5.7 0 .5.5.8 1.1 1 1.7.1-.1.3-.2.4-.3l2.6-2.6c-.3-.6-.7-1.1-1.2-1.6-3.1-3.1-8.2-3.1-11.3 0l-5.7 5.7c-3.1 3.1-3.1 8.2 0 11.3 3.1 3.1 8.2 3.1 11.3 0l4.3-4.3c-1.7.3-3.5.1-5.1-.5z"
		style="fill:#444" />
</svg>