<svg width="22" height="28" viewBox="0 0 22 28" fill="none" xmlns="http://www.w3.org/2000/svg">
    <g filter="url(#a)">
        <rect x="1.326" y=".415" width="19.912" height="25.72" rx="1.327" fill="#2B3036" />
        <rect x="2.819" y="7.55" width="4.314" height="1.327" rx=".498" fill="#7A7DCA" />
        <rect x="15.265" y="11.201" width="4.978" height="1.327" rx=".498" fill="#7A7DCA" />
        <rect x="2.819" y="11.201" width="1.825" height="1.327" rx=".498" fill="#FF4911" />
        <rect x="17.257" y="22.152" width="2.987" height="1.327" rx=".498" fill="#FF4911" />
        <rect x="17.919" y="18.502" width="2.323" height="1.327" rx=".498" fill="#FF4911" />
        <rect x="17.919" y="14.851" width="2.323" height="1.327" rx=".498" fill="#00B645" />
        <rect x="2.819" y="18.502" width="2.987" height="1.327" rx=".498" fill="#FF320C" />
        <rect x="2.819" y="14.851" width="1.825" height="1.327" rx=".498" fill="#EFA60E" />
        <rect x="9.126" y="22.152" width="6.14" height="1.327" rx=".498" fill="#EFA60E" />
        <rect x="8.626" y="7.55" width="5.808" height="1.327" rx=".498" fill="#EFA60E" />
        <rect x="2.819" y="22.152" width="4.314" height="1.327" rx=".498" fill="#B90FFF" />
        <rect x="15.929" y="7.55" width="4.314" height="1.327" rx=".498" fill="#B90FFF" />
        <rect x="12.444" y="18.502" width="3.817" height="1.327" rx=".498" fill="#00CB74" />
        <path d="M1.326 1.742c0-.733.595-1.327 1.328-1.327H19.91c.733 0 1.327.594 1.327 1.327V5.56H1.326V1.742Z"
            fill="#10BAFE" />
        <g filter="url(#b)">
            <path
                d="M5.967 12.397V11.24h5.45v1.157h-2.03v5.48H7.999v-5.48H5.967Zm9.787 1.922-1.264.078a.654.654 0 0 0-.14-.292.74.74 0 0 0-.281-.21.958.958 0 0 0-.412-.081 1.01 1.01 0 0 0-.54.136c-.148.088-.221.207-.221.356 0 .119.047.22.142.302.095.082.259.148.49.197l.9.182c.485.1.845.26 1.083.48.238.22.357.51.357.868 0 .326-.096.613-.289.859a1.87 1.87 0 0 1-.784.577c-.33.136-.712.204-1.144.204-.66 0-1.184-.137-1.575-.412a1.604 1.604 0 0 1-.684-1.127l1.358-.072c.041.201.14.354.298.46.158.104.36.156.606.156.242 0 .437-.047.584-.14.149-.095.224-.217.226-.366a.381.381 0 0 0-.158-.308c-.104-.082-.264-.144-.48-.188l-.862-.171c-.486-.098-.848-.266-1.086-.506-.235-.24-.353-.545-.353-.917 0-.32.086-.595.26-.827.174-.23.42-.409.735-.534.317-.125.69-.188 1.115-.188.628 0 1.123.133 1.484.398.363.266.575.628.635 1.086Z"
                fill="#10BAFE" />
            <path
                d="M5.967 12.397H5.8v.166h.166v-.166Zm0-1.157v-.166H5.8v.166h.166Zm5.45 0h.167v-.166h-.166v.166Zm0 1.157v.166h.167v-.166h-.166Zm-2.031 0v-.166H9.22v.166h.166Zm0 5.48v.167h.166v-.166h-.166Zm-1.387 0h-.166v.167h.166v-.166Zm0-5.48h.166v-.166h-.166v.166Zm-1.866 0V11.24H5.8v1.157h.332Zm-.166-.99h5.45v-.333h-5.45v.332Zm5.285-.167v1.157h.332V11.24h-.332Zm.166.991H9.386v.332h2.032v-.332Zm-2.198.166v5.48h.332v-5.48H9.22Zm.166 5.315H7.999v.332h1.387v-.332Zm-1.221.166v-5.48h-.332v5.48h.332Zm-.166-5.647H5.967v.332h2.032v-.332Zm7.755 2.088.01.166.178-.011-.023-.177-.165.022Zm-1.264.078-.162.033.028.141.145-.008-.01-.166Zm-.14-.292-.128.104.001.002.128-.106Zm-.281-.21-.07.15.003.001.067-.151Zm-.953.055.086.142.001-.001-.087-.141Zm-.078.658-.108.125.108-.125Zm.49.197-.035.162.002.001.033-.163Zm.9.182.034-.163-.033.163Zm1.083.48-.113.121.113-.122Zm.068 1.727-.13-.102h-.001l.131.102Zm-.784.577.063.153-.063-.153Zm-2.72-.208-.095.136.096-.136Zm-.683-1.127-.009-.166-.18.01.025.179.164-.023Zm1.358-.072.162-.033-.028-.14-.143.008.009.165Zm.298.46-.092.138v.001l.092-.139Zm1.19.017.088.14-.088-.14Zm.226-.367.166.003v-.006l-.166.003Zm-.158-.308-.103.13.001.002.102-.131Zm-.48-.188.032-.162-.032.162Zm-.862-.171-.033.162.033-.162Zm-1.086-.506-.118.116v.001l.118-.117Zm-.094-1.744-.132-.1v.001l.132.1Zm.736-.534-.061-.155.06.155Zm2.599.21-.098.134.098-.134Zm.625.92-1.264.078.02.332 1.264-.078-.02-.332Zm-1.091.211a.818.818 0 0 0-.174-.364l-.256.21a.488.488 0 0 1 .105.22l.325-.066Zm-.173-.363a.904.904 0 0 0-.344-.258l-.134.303a.575.575 0 0 1 .22.163l.258-.208Zm-.34-.256a1.123 1.123 0 0 0-.483-.097v.332c.142 0 .254.024.341.065l.142-.3Zm-.483-.097c-.237 0-.45.05-.628.16l.174.283a.847.847 0 0 1 .454-.111v-.332Zm-.627.16c-.187.113-.3.281-.3.498h.332c0-.081.034-.15.14-.214l-.171-.284Zm-.3.498c0 .17.07.316.2.427l.217-.251a.218.218 0 0 1-.085-.176h-.332Zm.2.427c.127.11.325.183.563.234l.07-.324c-.224-.048-.354-.107-.416-.161l-.217.251Zm.565.235.901.181.065-.325-.9-.181-.066.325Zm.9.181c.469.097.797.248 1.003.44l.226-.244c-.269-.25-.663-.418-1.162-.52l-.067.324Zm1.003.44c.2.185.304.428.304.746h.332c0-.4-.135-.735-.41-.99l-.226.243Zm.304.746c0 .291-.085.54-.254.757l.262.204c.216-.277.324-.6.324-.961h-.332Zm-.254.758c-.17.22-.406.395-.717.524l.128.307c.355-.148.641-.356.852-.629l-.263-.203Zm-.716.524a2.822 2.822 0 0 1-1.081.192v.332c.45 0 .853-.07 1.207-.217l-.126-.307Zm-1.081.192c-.638 0-1.126-.133-1.48-.382l-.19.272c.427.3.99.442 1.67.442v-.332Zm-1.479-.38a1.438 1.438 0 0 1-.616-1.017l-.328.047c.073.52.325.936.752 1.24l.192-.27Zm-.771-.828 1.358-.071-.018-.332-1.358.072.018.331Zm1.186-.204c.05.24.172.433.369.565l.185-.275a.532.532 0 0 1-.229-.356l-.325.066Zm.37.566c.192.126.428.183.697.183v-.332c-.223 0-.391-.047-.515-.128l-.182.277Zm.697.183c.262 0 .49-.05.672-.165l-.177-.28c-.112.07-.272.113-.495.113v.332Zm.673-.166c.186-.118.3-.287.303-.503l-.332-.005c0 .082-.038.157-.15.229l.179.28Zm.303-.509a.547.547 0 0 0-.223-.436l-.203.263c.066.05.093.107.095.18l.331-.007Zm-.221-.435c-.134-.105-.324-.175-.55-.22l-.066.325c.206.041.336.097.41.156l.206-.26Zm-.55-.22-.863-.172-.065.325.863.172.064-.325Zm-.863-.172c-.468-.094-.794-.252-1-.46l-.236.234c.27.272.667.45 1.171.551l.065-.325Zm-1-.46c-.201-.204-.305-.467-.305-.8h-.332c0 .41.131.76.4 1.033l.237-.232Zm-.305-.8c0-.288.077-.528.226-.727l-.266-.199a1.507 1.507 0 0 0-.292.926h.332Zm.225-.726a1.5 1.5 0 0 1 .665-.481l-.122-.308c-.34.134-.61.33-.807.588l.264.2Zm.665-.48A2.864 2.864 0 0 1 13.635 13v-.332c-.442 0-.835.065-1.176.2l.122.308ZM13.635 13c.607 0 1.063.128 1.386.366l.196-.267c-.398-.294-.932-.431-1.582-.431V13Zm1.386.366c.325.238.514.56.569.974l.329-.044a1.706 1.706 0 0 0-.702-1.197l-.196.267Z"
                fill="#2B3036" />
        </g>
    </g>
    <defs>
        <filter id="a" x=".662" y=".415" width="21.24" height="27.047" filterUnits="userSpaceOnUse"
            color-interpolation-filters="sRGB">
            <feFlood flood-opacity="0" result="BackgroundImageFix" />
            <feColorMatrix in="SourceAlpha" values="0 0 0 0 0 0 0 0 0 0 0 0 0 0 0 0 0 0 127 0" result="hardAlpha" />
            <feOffset dy=".664" />
            <feGaussianBlur stdDeviation=".332" />
            <feColorMatrix values="0 0 0 0 0 0 0 0 0 0 0 0 0 0 0 0 0 0 0.25 0" />
            <feBlend in2="BackgroundImageFix" result="effect1_dropShadow_64_6854" />
            <feBlend in="SourceGraphic" in2="effect1_dropShadow_64_6854" result="shape" />
        </filter>
        <filter id="b" x="5.303" y="10.742" width="11.229" height="8.062" filterUnits="userSpaceOnUse"
            color-interpolation-filters="sRGB">
            <feFlood flood-opacity="0" result="BackgroundImageFix" />
            <feColorMatrix in="SourceAlpha" values="0 0 0 0 0 0 0 0 0 0 0 0 0 0 0 0 0 0 127 0" result="hardAlpha" />
            <feOffset dy=".166" />
            <feGaussianBlur stdDeviation=".332" />
            <feColorMatrix values="0 0 0 0 0 0 0 0 0 0 0 0 0 0 0 0 0 0 0.25 0" />
            <feBlend in2="BackgroundImageFix" result="effect1_dropShadow_64_6854" />
            <feBlend in="SourceGraphic" in2="effect1_dropShadow_64_6854" result="shape" />
        </filter>
    </defs>
</svg>